<svg width="376" height="52" viewBox="0 0 376 52" fill="none" xmlns="http://www.w3.org/2000/svg">
<g opacity="0.5">
<path d="M2.48896 2.83205C1.8244 1.83522 2.53899 0.5 3.73703 0.5H156.263C157.461 0.5 158.176 1.83522 157.511 2.83205L144.771 21.9415C144.122 22.9151 143.029 23.5 141.859 23.5H18.1407C16.9705 23.5 15.8777 22.9151 15.2286 21.9415L2.48896 2.83205Z" stroke="white"/>
</g>
<g opacity="0.5">
<path d="M218.489 2.83205C217.824 1.83522 218.539 0.5 219.737 0.5H372.263C373.461 0.5 374.176 1.83522 373.511 2.83205L360.771 21.9415C360.122 22.9151 359.029 23.5 357.859 23.5H234.141C232.97 23.5 231.878 22.9151 231.229 21.9415L218.489 2.83205Z" stroke="white"/>
</g>
<g opacity="0.5">
<path d="M2.48896 49.168C1.8244 50.1648 2.53899 51.5 3.73703 51.5H156.263C157.461 51.5 158.176 50.1648 157.511 49.168L144.771 30.0585C144.122 29.0849 143.029 28.5 141.859 28.5H18.1407C16.9705 28.5 15.8777 29.0849 15.2286 30.0585L2.48896 49.168Z" stroke="white"/>
</g>
<g opacity="0.5">
<path d="M218.489 49.168C217.824 50.1648 218.539 51.5 219.737 51.5H372.263C373.461 51.5 374.176 50.1648 373.511 49.168L360.771 30.0585C360.122 29.0849 359.029 28.5 357.859 28.5H234.141C232.97 28.5 231.878 29.0849 231.229 30.0585L218.489 49.168Z" stroke="white"/>
</g>
<path d="M168.254 2.16566C168.891 1.13054 170.02 0.5 171.235 0.5H206.765C207.98 0.5 209.109 1.13054 209.746 2.16566L223.284 24.1657C223.976 25.2906 223.976 26.7094 223.284 27.8343L209.746 49.8343C209.109 50.8695 207.98 51.5 206.765 51.5H171.235C170.02 51.5 168.891 50.8695 168.254 49.8343L154.716 27.8343C154.024 26.7094 154.024 25.2906 154.716 24.1657L168.254 2.16566Z" stroke="#56CCF2"/>
</svg>
