<svg width="657" height="193" viewBox="0 0 657 193" fill="none" xmlns="http://www.w3.org/2000/svg">
<path d="M33.2727 81.5682V73.4545H71.5V81.5682H57.25V120H47.5227V81.5682H33.2727ZM77.7955 120V73.4545H96.1591C99.6742 73.4545 102.674 74.0833 105.159 75.3409C107.659 76.5833 109.561 78.3485 110.864 80.6364C112.182 82.9091 112.841 85.5833 112.841 88.6591C112.841 91.75 112.174 94.4091 110.841 96.6364C109.508 98.8485 107.576 100.545 105.045 101.727C102.53 102.909 99.4848 103.5 95.9091 103.5H83.6136V95.5909H94.3182C96.197 95.5909 97.7576 95.3333 99 94.8182C100.242 94.303 101.167 93.5303 101.773 92.5C102.394 91.4697 102.705 90.1894 102.705 88.6591C102.705 87.1136 102.394 85.8106 101.773 84.75C101.167 83.6894 100.235 82.8864 98.9773 82.3409C97.7348 81.7803 96.1667 81.5 94.2727 81.5H87.6364V120H77.7955ZM102.932 98.8182L114.5 120H103.636L92.3182 98.8182H102.932ZM127.818 120H117.273L133.341 73.4545H146.023L162.068 120H151.523L139.864 84.0909H139.5L127.818 120ZM127.159 101.705H152.068V109.386H127.159V101.705ZM206.602 73.4545V120H198.102L177.852 90.7045H177.511V120H167.67V73.4545H176.307L196.398 102.727H196.807V73.4545H206.602ZM239.983 86.8409C239.801 85.0076 239.021 83.5833 237.642 82.5682C236.263 81.553 234.392 81.0455 232.028 81.0455C230.422 81.0455 229.066 81.2727 227.96 81.7273C226.854 82.1667 226.006 82.7803 225.415 83.5682C224.839 84.3561 224.551 85.25 224.551 86.25C224.521 87.0833 224.695 87.8106 225.074 88.4318C225.468 89.053 226.006 89.5909 226.688 90.0455C227.369 90.4848 228.157 90.8712 229.051 91.2045C229.945 91.5227 230.9 91.7955 231.915 92.0227L236.097 93.0227C238.127 93.4773 239.991 94.0833 241.688 94.8409C243.384 95.5985 244.854 96.5303 246.097 97.6364C247.339 98.7424 248.301 100.045 248.983 101.545C249.68 103.045 250.036 104.765 250.051 106.705C250.036 109.553 249.309 112.023 247.869 114.114C246.445 116.189 244.384 117.803 241.688 118.955C239.006 120.091 235.771 120.659 231.983 120.659C228.225 120.659 224.953 120.083 222.165 118.932C219.392 117.78 217.225 116.076 215.665 113.818C214.119 111.545 213.309 108.735 213.233 105.386H222.756C222.862 106.947 223.309 108.25 224.097 109.295C224.9 110.326 225.968 111.106 227.301 111.636C228.65 112.152 230.172 112.409 231.869 112.409C233.536 112.409 234.983 112.167 236.21 111.682C237.453 111.197 238.415 110.523 239.097 109.659C239.778 108.795 240.119 107.803 240.119 106.682C240.119 105.636 239.809 104.758 239.188 104.045C238.581 103.333 237.688 102.727 236.506 102.227C235.339 101.727 233.907 101.273 232.21 100.864L227.142 99.5909C223.218 98.6364 220.119 97.1439 217.847 95.1136C215.574 93.0833 214.445 90.3485 214.46 86.9091C214.445 84.0909 215.195 81.6288 216.71 79.5227C218.241 77.4167 220.339 75.7727 223.006 74.5909C225.672 73.4091 228.703 72.8182 232.097 72.8182C235.551 72.8182 238.566 73.4091 241.142 74.5909C243.733 75.7727 245.748 77.4167 247.188 79.5227C248.627 81.6288 249.369 84.0682 249.415 86.8409H239.983ZM315.92 120V73.4545H347.284V81.5682H325.761V92.6591H345.67V100.773H325.761V111.886H347.375V120H315.92ZM394.04 73.4545V120H385.54L365.29 90.7045H364.949V120H355.108V73.4545H363.744L383.835 102.727H384.244V73.4545H394.04ZM418.67 120H402.17V73.4545H418.807C423.489 73.4545 427.519 74.3864 430.898 76.25C434.277 78.0985 436.875 80.7576 438.693 84.2273C440.527 87.697 441.443 91.8485 441.443 96.6818C441.443 101.53 440.527 105.697 438.693 109.182C436.875 112.667 434.261 115.341 430.852 117.205C427.458 119.068 423.398 120 418.67 120ZM412.011 111.568H418.261C421.17 111.568 423.617 111.053 425.602 110.023C427.602 108.977 429.102 107.364 430.102 105.182C431.117 102.985 431.625 100.152 431.625 96.6818C431.625 93.2424 431.117 90.4318 430.102 88.25C429.102 86.0682 427.61 84.4621 425.625 83.4318C423.64 82.4015 421.193 81.8864 418.284 81.8864H412.011V111.568ZM454.131 120H443.585L459.653 73.4545H472.335L488.381 120H477.835L466.176 84.0909H465.812L454.131 120ZM453.472 101.705H478.381V109.386H453.472V101.705ZM532.915 73.4545V120H524.415L504.165 90.7045H503.824V120H493.983V73.4545H502.619L522.71 102.727H523.119V73.4545H532.915ZM582.114 89.75H572.159C571.977 88.4621 571.606 87.3182 571.045 86.3182C570.485 85.303 569.765 84.4394 568.886 83.7273C568.008 83.0151 566.992 82.4697 565.841 82.0909C564.705 81.7121 563.47 81.5227 562.136 81.5227C559.727 81.5227 557.629 82.1212 555.841 83.3182C554.053 84.5 552.667 86.2273 551.682 88.5C550.697 90.7576 550.205 93.5 550.205 96.7273C550.205 100.045 550.697 102.833 551.682 105.091C552.682 107.348 554.076 109.053 555.864 110.205C557.652 111.356 559.72 111.932 562.068 111.932C563.386 111.932 564.606 111.758 565.727 111.409C566.864 111.061 567.871 110.553 568.75 109.886C569.629 109.205 570.356 108.379 570.932 107.409C571.523 106.439 571.932 105.333 572.159 104.091L582.114 104.136C581.856 106.273 581.212 108.333 580.182 110.318C579.167 112.288 577.795 114.053 576.068 115.614C574.356 117.159 572.311 118.386 569.932 119.295C567.568 120.189 564.894 120.636 561.909 120.636C557.758 120.636 554.045 119.697 550.773 117.818C547.515 115.939 544.939 113.22 543.045 109.659C541.167 106.098 540.227 101.788 540.227 96.7273C540.227 91.6515 541.182 87.3333 543.091 83.7727C545 80.2121 547.591 77.5 550.864 75.6364C554.136 73.7576 557.818 72.8182 561.909 72.8182C564.606 72.8182 567.106 73.197 569.409 73.9545C571.727 74.7121 573.78 75.8182 575.568 77.2727C577.356 78.7121 578.811 80.4773 579.932 82.5682C581.068 84.6591 581.795 87.053 582.114 89.75ZM589.17 120V73.4545H620.534V81.5682H599.011V92.6591H618.92V100.773H599.011V111.886H620.625V120H589.17Z" fill="black"/>
<rect x="632" width="25" height="120" fill="#FF0000"/>
<rect y="73" width="25" height="120" fill="#FF0000"/>
<path d="M303.996 87.0049C301.8 82.0316 297.946 77.9739 293.093 75.5231C288.24 73.0722 282.687 72.38 277.381 73.5643C272.075 74.7486 267.343 77.7361 263.993 82.0178C260.642 86.2996 258.88 91.6106 259.006 97.046C259.133 102.481 261.14 107.705 264.686 111.826C268.231 115.948 273.097 118.712 278.452 119.649C283.808 120.585 289.322 119.636 294.056 116.962C298.79 114.289 302.451 110.056 304.414 104.986L296.075 101.757C294.859 104.898 292.591 107.519 289.659 109.176C286.726 110.832 283.31 111.42 279.992 110.84C276.675 110.26 273.661 108.547 271.465 105.994C269.268 103.441 268.025 100.205 267.947 96.8382C267.868 93.4712 268.96 90.1812 271.035 87.5288C273.111 84.8764 276.042 83.0258 279.329 82.2921C282.616 81.5585 286.056 81.9873 289.062 83.5055C292.069 85.0237 294.455 87.5374 295.816 90.6181L303.996 87.0049Z" fill="url(#paint0_linear_1_12)"/>
<defs>
<linearGradient id="paint0_linear_1_12" x1="306" y1="90.5" x2="259" y2="104.5" gradientUnits="userSpaceOnUse">
<stop stop-color="#FF0000"/>
<stop offset="1" stop-color="#FF0000" stop-opacity="0"/>
</linearGradient>
</defs>
</svg>
